<?xml version="1.0" encoding="utf-8"?>
<!-- Generator: Adobe Illustrator 16.0.0, SVG Export Plug-In . SVG Version: 6.00 Build 0)  -->
<!DOCTYPE svg PUBLIC "-//W3C//DTD SVG 1.1//EN" "http://www.w3.org/Graphics/SVG/1.1/DTD/svg11.dtd">
<svg version="1.1" id="Layer_1" xmlns="http://www.w3.org/2000/svg" xmlns:xlink="http://www.w3.org/1999/xlink" x="0px" y="0px"
	 width="332.5px" height="332.5px" viewBox="0 0 332.5 332.5" enable-background="new 0 0 332.5 332.5" xml:space="preserve">
<rect fill="#027989" width="332.5" height="332.5"/>
<rect fill="#27989F" width="332.5" height="332.5"/>
<g>
	<g>
		<path fill="#FFFFFF" d="M166.163,160.311c-1.353,5.168-2.805,10.202-4.358,15.103c-1.554,4.901-3.095,9.526-4.622,13.873h-8.717
			c-1.176-2.698-2.408-5.779-3.696-9.244s-2.578-7.162-3.872-11.095c-1.298-3.922-2.591-8.062-3.879-12.421
			c-1.288-4.358-2.551-8.791-3.792-13.298h11.271c0.533,2.464,1.149,5.125,1.852,7.982c0.702,2.858,1.437,5.764,2.204,8.717
			c0.761,2.964,1.559,5.856,2.394,8.677c0.836,2.82,1.658,5.403,2.467,7.75c0.878-2.698,1.742-5.485,2.594-8.365
			c0.851-2.879,1.649-5.755,2.394-8.629c0.761-2.878,1.479-5.681,2.155-8.406c0.676-2.724,1.277-5.292,1.804-7.703h8.206
			c0.532,2.405,1.12,4.973,1.765,7.703c0.644,2.73,1.329,5.527,2.059,8.39c0.735,2.879,1.532,5.755,2.395,8.629
			c0.862,2.873,1.728,5.661,2.594,8.365c0.762-2.346,1.561-4.931,2.396-7.751c0.836-2.82,1.634-5.712,2.396-8.676
			c0.793-2.964,1.54-5.87,2.242-8.717c0.703-2.848,1.321-5.508,1.852-7.982h11.008c-1.261,4.534-2.524,8.973-3.791,13.314
			c-1.267,4.343-2.558,8.48-3.871,12.413c-1.294,3.933-2.585,7.631-3.872,11.095c-1.287,3.465-2.551,6.549-3.791,9.252h-8.629
			c-1.528-4.342-3.098-8.964-4.71-13.865S167.515,165.484,166.163,160.311L166.163,160.311z"/>
	</g>
</g>
</svg>
