<?xml version="1.0" encoding="utf-8"?>
<!-- Generator: Adobe Illustrator 16.0.0, SVG Export Plug-In . SVG Version: 6.00 Build 0)  -->
<!DOCTYPE svg PUBLIC "-//W3C//DTD SVG 1.1//EN" "http://www.w3.org/Graphics/SVG/1.1/DTD/svg11.dtd">
<svg version="1.1" id="Layer_1" xmlns="http://www.w3.org/2000/svg" xmlns:xlink="http://www.w3.org/1999/xlink" x="0px" y="0px"
	 width="924.09px" height="924.09px" viewBox="0 0 924.09 924.09" enable-background="new 0 0 924.09 924.09" xml:space="preserve">
<rect fill="#191919" width="924.089" height="924.09"/>
<rect fill="#191919" width="924.089" height="924.09"/>
<g>
	<path fill="#FFFFFF" d="M415.777,477.547c0.595,0,1.123,0.229,1.583,0.689l4.301,4.667c-2.38,2.95-5.309,5.209-8.785,6.778
		c-3.477,1.569-7.65,2.353-12.52,2.353c-4.355,0-8.272-0.744-11.748-2.231c-3.477-1.487-6.447-3.559-8.908-6.209
		c-2.462-2.652-4.349-5.817-5.66-9.497c-1.313-3.678-1.968-7.695-1.968-12.052c0-4.409,0.703-8.446,2.109-12.113
		c1.407-3.666,3.389-6.823,5.946-9.476c2.556-2.651,5.606-4.713,9.15-6.189c3.544-1.474,7.466-2.211,11.769-2.211
		c4.273,0,8.068,0.704,11.383,2.111c3.313,1.407,6.133,3.246,8.461,5.519l-3.653,5.072c-0.216,0.324-0.494,0.608-0.832,0.852
		c-0.338,0.243-0.805,0.365-1.4,0.365c-0.405,0-0.826-0.115-1.257-0.345c-0.434-0.23-0.906-0.514-1.42-0.852
		c-0.514-0.338-1.109-0.711-1.786-1.116c-0.676-0.406-1.461-0.777-2.354-1.116c-0.892-0.338-1.927-0.622-3.104-0.852
		c-1.177-0.23-2.536-0.345-4.078-0.345c-2.625,0-5.026,0.466-7.204,1.4c-2.178,0.933-4.051,2.287-5.621,4.059
		c-1.569,1.771-2.786,3.937-3.651,6.492c-0.867,2.556-1.298,5.472-1.298,8.745c0,3.301,0.466,6.236,1.399,8.806
		c0.934,2.57,2.198,4.735,3.795,6.493c1.596,1.759,3.476,3.104,5.641,4.038c2.164,0.934,4.49,1.399,6.98,1.399
		c1.487,0,2.833-0.08,4.037-0.244c1.204-0.161,2.313-0.417,3.328-0.77c1.015-0.352,1.975-0.805,2.881-1.359s1.807-1.239,2.699-2.051
		c0.271-0.243,0.555-0.438,0.852-0.588C415.142,477.621,415.452,477.547,415.777,477.547z"/>
	<path fill="#FFFFFF" d="M472.858,441.674h-17.691v49.712h-10.917v-49.712h-17.693v-8.968h46.301V441.674z"/>
	<g>
		<path fill="#B3B3B3" d="M500.71,470.527c0,3.3-0.404,6.275-1.215,8.927c-0.813,2.651-2.023,4.91-3.633,6.776
			c-1.609,1.867-3.619,3.302-6.026,4.302c-2.409,1.001-5.207,1.502-8.401,1.502c-1.461,0-2.893-0.089-4.301-0.263
			c-1.406-0.178-2.88-0.455-4.423-0.833c0.082-1.083,0.177-2.163,0.285-3.247c0.105-1.081,0.201-2.163,0.282-3.246
			c0.082-0.595,0.317-1.076,0.711-1.44c0.392-0.364,0.954-0.548,1.683-0.548c0.46,0,1.063,0.095,1.808,0.284
			c0.742,0.189,1.683,0.283,2.819,0.283c1.543,0,2.908-0.223,4.1-0.669c1.189-0.447,2.186-1.157,2.983-2.13
			c0.798-0.975,1.4-2.239,1.804-3.795c0.407-1.555,0.611-3.441,0.611-5.661v-38.063h10.913V470.527z"/>
	</g>
	<g>
		<path fill="#B3B3B3" d="M548.245,443.378c-0.325,0.568-0.672,0.981-1.036,1.238c-0.364,0.258-0.819,0.386-1.36,0.386
			c-0.568,0-1.184-0.21-1.845-0.628c-0.663-0.42-1.455-0.887-2.375-1.4c-0.919-0.514-1.994-0.98-3.226-1.4
			c-1.231-0.419-2.685-0.629-4.362-0.629c-1.516,0-2.84,0.183-3.979,0.548c-1.136,0.365-2.09,0.872-2.858,1.522
			c-0.771,0.648-1.348,1.426-1.726,2.333c-0.38,0.906-0.567,1.901-0.567,2.983c0,1.379,0.386,2.53,1.154,3.449
			c0.771,0.921,1.794,1.704,3.064,2.354c1.271,0.648,2.719,1.231,4.344,1.745c1.622,0.514,3.286,1.062,4.99,1.643
			s3.369,1.258,4.991,2.029c1.625,0.771,3.069,1.745,4.343,2.922c1.271,1.176,2.294,2.617,3.063,4.321
			c0.771,1.705,1.157,3.773,1.157,6.21c0,2.649-0.452,5.133-1.358,7.444c-0.908,2.314-2.232,4.33-3.979,6.048
			c-1.744,1.717-3.876,3.07-6.391,4.058c-2.516,0.987-5.397,1.481-8.645,1.481c-1.865,0-3.707-0.184-5.517-0.549
			c-1.815-0.364-3.551-0.885-5.216-1.562c-1.664-0.676-3.226-1.487-4.687-2.436c-1.461-0.945-2.761-2.001-3.896-3.165l3.207-5.233
			c0.27-0.381,0.621-0.697,1.054-0.954c0.434-0.258,0.894-0.386,1.38-0.386c0.676,0,1.405,0.277,2.192,0.832
			c0.782,0.555,1.718,1.171,2.798,1.846c1.083,0.678,2.349,1.293,3.797,1.847c1.445,0.555,3.184,0.831,5.212,0.831
			c3.112,0,5.52-0.736,7.224-2.211c1.707-1.475,2.558-3.591,2.558-6.352c0-1.54-0.386-2.8-1.157-3.773
			c-0.77-0.975-1.791-1.791-3.063-2.455c-1.273-0.662-2.719-1.224-4.343-1.685c-1.622-0.46-3.273-0.959-4.951-1.501
			c-1.678-0.541-3.326-1.189-4.951-1.948c-1.622-0.757-3.07-1.745-4.341-2.961c-1.273-1.218-2.293-2.74-3.064-4.565
			c-0.771-1.827-1.157-4.079-1.157-6.757c0-2.137,0.428-4.22,1.278-6.25c0.854-2.029,2.09-3.828,3.715-5.397
			c1.622-1.568,3.625-2.827,6.005-3.774c2.381-0.946,5.112-1.42,8.198-1.42c3.461,0,6.655,0.542,9.577,1.624
			c2.922,1.082,5.411,2.597,7.466,4.546L548.245,443.378z"/>
	</g>
	<g>
		<path fill="#FFFFFF" d="M585.428,396.179V527.91H338.663V396.179H585.428 M596.249,385.358H327.842v153.375h268.407V385.358
			L596.249,385.358z"/>
	</g>
</g>
</svg>
