<?xml version="1.0" encoding="utf-8"?>
<!-- Generator: Adobe Illustrator 16.0.0, SVG Export Plug-In . SVG Version: 6.00 Build 0)  -->
<!DOCTYPE svg PUBLIC "-//W3C//DTD SVG 1.1//EN" "http://www.w3.org/Graphics/SVG/1.1/DTD/svg11.dtd">
<svg version="1.1" id="Layer_1" xmlns="http://www.w3.org/2000/svg" xmlns:xlink="http://www.w3.org/1999/xlink" x="0px" y="0px"
	 width="942.52px" height="942.52px" viewBox="0 0 942.52 942.52" enable-background="new 0 0 942.52 942.52" xml:space="preserve">
<g>
	<rect fill="#191919" width="942.519" height="942.52"/>
</g>
<g>
	<rect fill="#FA9851" width="942.519" height="942.52"/>
</g>
<g>
	<g>
		<g>
			<path fill="#FFFFFF" d="M700.86,404.081v134.358H241.659V404.081H700.86 M711.897,393.043H230.622v156.433h481.275V393.043
				L711.897,393.043z"/>
		</g>
	</g>
	<g>
		<path fill="#FFFFFF" d="M291.929,486.449l-4.272,15.397h-14.063l18.335-59.989h17.801l18.602,59.989h-14.597l-4.628-15.397
			H291.929z M307.149,476.303l-3.738-12.728c-1.068-3.56-2.136-8.01-3.026-11.571h-0.178c-0.89,3.561-1.78,8.1-2.759,11.571
			l-3.56,12.728H307.149z"/>
		<path fill="#FFFFFF" d="M336.339,501.847v-59.989h15.843l12.46,21.984c3.56,6.319,7.121,13.796,9.791,20.56h0.267
			c-0.89-7.921-1.157-16.021-1.157-25.01v-17.534h12.46v59.989h-14.24l-12.817-23.142c-3.56-6.408-7.477-14.151-10.414-21.183
			l-0.267,0.089c0.356,7.921,0.534,16.377,0.534,26.167v18.068H336.339z"/>
		<path fill="#FFFFFF" d="M447.857,499.088c-4.183,1.424-12.104,3.382-20.026,3.382c-10.948,0-18.869-2.759-24.387-8.1
			c-5.519-5.162-8.544-12.994-8.456-21.806c0.089-19.938,14.597-31.33,34.267-31.33c7.744,0,13.707,1.513,16.644,2.938
			l-2.848,10.858c-3.293-1.424-7.388-2.581-13.974-2.581c-11.304,0-19.848,6.408-19.848,19.403c0,12.372,7.743,19.67,18.869,19.67
			c3.115,0,5.607-0.356,6.676-0.891v-12.55h-9.257v-10.591h22.34V499.088z"/>
		<path fill="#FFFFFF" d="M471.973,441.857v34.534c0,10.324,3.917,15.575,10.859,15.575c7.12,0,11.036-4.983,11.036-15.575v-34.534
			h13.529v33.644c0,18.514-9.346,27.325-25.011,27.325c-15.131,0-24.031-8.367-24.031-27.503v-33.466H471.973z"/>
		<path fill="#FFFFFF" d="M519.142,441.857h13.618v48.597h23.853v11.393h-37.471V441.857z"/>
		<path fill="#FFFFFF" d="M579.127,486.449l-4.271,15.397h-14.063l18.335-59.989h17.801l18.603,59.989h-14.597l-4.629-15.397
			H579.127z M594.347,476.303l-3.737-12.728c-1.068-3.56-2.137-8.01-3.026-11.571h-0.179c-0.89,3.561-1.779,8.1-2.759,11.571
			l-3.561,12.728H594.347z"/>
		<path fill="#FFFFFF" d="M623.536,442.659c4.361-0.712,10.858-1.246,18.068-1.246c8.9,0,15.131,1.335,19.402,4.717
			c3.561,2.848,5.519,7.031,5.519,12.55c0,7.654-5.429,12.905-10.592,14.774v0.267c4.184,1.691,6.498,5.697,8.011,11.215
			c1.869,6.765,3.738,14.597,4.896,16.911h-13.885c-0.979-1.691-2.403-6.586-4.184-13.974c-1.602-7.477-4.183-9.523-9.701-9.612
			h-4.094v23.586h-13.44V442.659z M636.977,468.47h5.34c6.765,0,10.77-3.382,10.77-8.634c0-5.518-3.738-8.277-9.969-8.366
			c-3.293,0-5.162,0.267-6.141,0.445V468.47z"/>
	</g>
</g>
</svg>
