<?xml version="1.0" encoding="utf-8"?>
<!-- Generator: Adobe Illustrator 16.0.0, SVG Export Plug-In . SVG Version: 6.00 Build 0)  -->
<!DOCTYPE svg PUBLIC "-//W3C//DTD SVG 1.1//EN" "http://www.w3.org/Graphics/SVG/1.1/DTD/svg11.dtd">
<svg version="1.1" id="Layer_1" xmlns="http://www.w3.org/2000/svg" xmlns:xlink="http://www.w3.org/1999/xlink" x="0px" y="0px"
	 width="924.09px" height="924.09px" viewBox="0 0 924.09 924.09" enable-background="new 0 0 924.09 924.09" xml:space="preserve">
<rect y="0" fill="#027989" width="924.09" height="924.089"/>
<rect y="0" fill="#027989" width="924.09" height="924.089"/>
<g>
	<g>
		<path fill="#FFFFFF" d="M461.801,445.54c-3.756,14.361-7.794,28.352-12.113,41.974c-4.318,13.62-8.6,26.474-12.845,38.557h-24.226
			c-3.268-7.499-6.692-16.062-10.272-25.69c-3.579-9.629-7.166-19.907-10.759-30.836c-3.609-10.9-7.202-22.407-10.782-34.52
			c-3.579-12.113-7.091-24.434-10.538-36.961h31.325c1.479,6.849,3.195,14.243,5.147,22.185c1.952,7.942,3.993,16.018,6.123,24.227
			c2.116,8.237,4.333,16.276,6.656,24.114c2.322,7.839,4.607,15.02,6.855,21.541c2.44-7.498,4.843-15.246,7.21-23.249
			c2.366-8.001,4.584-15.995,6.656-23.981c2.115-8.001,4.111-15.788,5.99-23.36c1.878-7.572,3.549-14.709,5.014-21.408h22.806
			c1.479,6.685,3.113,13.821,4.903,21.408c1.788,7.587,3.696,15.359,5.723,23.316c2.042,8.001,4.261,15.995,6.655,23.98
			c2.396,7.986,4.801,15.737,7.21,23.251c2.116-6.522,4.334-13.703,6.656-21.542c2.321-7.838,4.54-15.877,6.655-24.114
			c2.203-8.238,4.281-16.313,6.233-24.227s3.669-15.308,5.147-22.185h30.594c-3.506,12.602-7.018,24.937-10.539,37.005
			c-3.52,12.068-7.105,23.566-10.758,34.497c-3.595,10.929-7.182,21.208-10.762,30.836c-3.578,9.629-7.09,18.2-10.537,25.713h-23.98
			c-4.246-12.068-8.609-24.914-13.09-38.534C469.678,473.914,465.559,459.915,461.801,445.54L461.801,445.54z"/>
	</g>
</g>
</svg>
