<?xml version="1.0" encoding="utf-8"?>
<!-- Generator: Adobe Illustrator 16.0.0, SVG Export Plug-In . SVG Version: 6.00 Build 0)  -->
<!DOCTYPE svg PUBLIC "-//W3C//DTD SVG 1.1//EN" "http://www.w3.org/Graphics/SVG/1.1/DTD/svg11.dtd">
<svg version="1.1" id="Layer_1" xmlns="http://www.w3.org/2000/svg" xmlns:xlink="http://www.w3.org/1999/xlink" x="0px" y="0px"
	 width="198.425px" height="113.386px" viewBox="0 0 198.425 113.386" enable-background="new 0 0 198.425 113.386"
	 xml:space="preserve">
<g>
	<path fill="#191919" d="M65.008,68.153c0.439,0,0.83,0.17,1.17,0.51l3.18,3.451c-1.76,2.18-3.925,3.85-6.494,5.01
		c-2.57,1.16-5.655,1.74-9.256,1.74c-3.22,0-6.115-0.551-8.685-1.65s-4.765-2.63-6.585-4.59c-1.82-1.961-3.215-4.301-4.185-7.021
		c-0.971-2.72-1.455-5.689-1.455-8.909c0-3.26,0.52-6.245,1.56-8.955c1.04-2.711,2.506-5.045,4.396-7.006
		c1.89-1.959,4.145-3.484,6.765-4.574s5.52-1.635,8.7-1.635c3.159,0,5.965,0.52,8.415,1.56c2.449,1.04,4.535,2.399,6.255,4.08
		l-2.7,3.75c-0.16,0.239-0.365,0.45-0.615,0.63s-0.595,0.27-1.035,0.27c-0.299,0-0.609-0.084-0.93-0.254s-0.67-0.381-1.05-0.631
		s-0.82-0.525-1.319-0.824c-0.501-0.301-1.08-0.575-1.74-0.826c-0.66-0.25-1.426-0.459-2.295-0.629
		c-0.871-0.17-1.875-0.256-3.016-0.256c-1.939,0-3.715,0.346-5.324,1.035c-1.611,0.689-2.996,1.69-4.156,3
		c-1.16,1.311-2.06,2.91-2.699,4.801c-0.641,1.889-0.96,4.045-0.96,6.465c0,2.439,0.345,4.609,1.034,6.51
		c0.69,1.9,1.625,3.5,2.806,4.799c1.18,1.301,2.569,2.296,4.17,2.986c1.6,0.689,3.319,1.035,5.16,1.035
		c1.1,0,2.095-0.061,2.985-0.181c0.889-0.12,1.709-0.31,2.459-0.569s1.46-0.596,2.131-1.006c0.67-0.41,1.335-0.915,1.994-1.516
		c0.2-0.18,0.41-0.324,0.631-0.434C64.539,68.208,64.768,68.153,65.008,68.153z"/>
	<path fill="#191919" d="M107.208,41.633H94.128v36.75h-8.069v-36.75h-13.08v-6.63h34.229V41.633z"/>
	<g>
		<path fill="#B3B3B3" d="M127.797,62.963c0,2.439-0.299,4.641-0.899,6.6c-0.601,1.961-1.495,3.631-2.685,5.01
			c-1.19,1.381-2.676,2.441-4.455,3.18c-1.781,0.74-3.851,1.111-6.211,1.111c-1.08,0-2.14-0.066-3.18-0.195
			c-1.039-0.131-2.129-0.335-3.27-0.615c0.061-0.8,0.13-1.6,0.21-2.4c0.079-0.799,0.149-1.6,0.21-2.4
			c0.061-0.439,0.234-0.795,0.525-1.064c0.289-0.27,0.705-0.404,1.244-0.404c0.34,0,0.785,0.07,1.336,0.209
			c0.549,0.141,1.244,0.211,2.084,0.211c1.141,0,2.15-0.166,3.031-0.496c0.879-0.33,1.614-0.854,2.204-1.574
			c0.59-0.721,1.035-1.654,1.335-2.805c0.301-1.15,0.45-2.545,0.45-4.186v-28.14h8.069V62.963z"/>
	</g>
	<g>
		<path fill="#B3B3B3" d="M162.938,42.893c-0.24,0.42-0.496,0.726-0.766,0.916c-0.27,0.189-0.605,0.284-1.006,0.284
			c-0.42,0-0.875-0.155-1.364-0.465c-0.49-0.31-1.075-0.655-1.755-1.035s-1.475-0.725-2.385-1.034
			c-0.91-0.311-1.985-0.466-3.225-0.466c-1.121,0-2.101,0.136-2.941,0.405c-0.84,0.27-1.545,0.645-2.114,1.125
			s-0.995,1.055-1.274,1.725c-0.281,0.67-0.42,1.406-0.42,2.205c0,1.02,0.284,1.871,0.854,2.551c0.57,0.68,1.326,1.26,2.266,1.739
			s2.01,0.91,3.21,1.29s2.431,0.785,3.69,1.215s2.49,0.93,3.689,1.5c1.2,0.57,2.27,1.29,3.211,2.16
			c0.939,0.869,1.694,1.936,2.264,3.195c0.57,1.26,0.855,2.789,0.855,4.59c0,1.96-0.335,3.795-1.005,5.505
			c-0.671,1.71-1.649,3.2-2.94,4.47c-1.289,1.271-2.865,2.27-4.725,3s-3.99,1.096-6.391,1.096c-1.379,0-2.74-0.136-4.079-0.406
			c-1.341-0.27-2.625-0.654-3.854-1.154c-1.23-0.5-2.386-1.1-3.466-1.801c-1.079-0.699-2.04-1.479-2.88-2.34l2.37-3.869
			c0.2-0.28,0.46-0.516,0.78-0.705c0.319-0.189,0.66-0.285,1.02-0.285c0.5,0,1.039,0.205,1.62,0.615
			c0.579,0.41,1.271,0.865,2.069,1.365c0.801,0.5,1.735,0.955,2.806,1.365c1.069,0.41,2.354,0.614,3.854,0.614
			c2.301,0,4.08-0.544,5.34-1.636c1.261-1.09,1.891-2.654,1.891-4.694c0-1.14-0.285-2.069-0.855-2.79
			c-0.569-0.72-1.324-1.324-2.265-1.814s-2.01-0.905-3.21-1.246c-1.199-0.34-2.42-0.709-3.66-1.109s-2.459-0.88-3.66-1.439
			c-1.199-0.561-2.27-1.291-3.209-2.19c-0.941-0.899-1.695-2.024-2.266-3.375s-0.855-3.015-0.855-4.995
			c0-1.58,0.315-3.119,0.945-4.619c0.631-1.5,1.545-2.83,2.745-3.99s2.681-2.09,4.44-2.791c1.76-0.699,3.779-1.049,6.06-1.049
			c2.56,0,4.92,0.4,7.08,1.199c2.16,0.801,4,1.92,5.521,3.36L162.938,42.893z"/>
	</g>
	<g>
		<path fill="#191919" d="M190.425,8v97.386H8V8H190.425 M198.425,0H0v113.386h198.425V0L198.425,0z"/>
	</g>
</g>
</svg>
