<svg id="Layer_1" data-name="Layer 1" xmlns="http://www.w3.org/2000/svg" viewBox="0 0 100 100"><defs><style>.cls-1{fill:#27989f}.cls-2{fill:#fff}</style></defs><path class="cls-1" d="M-1.57-1.57h103.13v103.13H-1.57z"/><path class="cls-2" d="M49.89 42.55q-2.54 9.71-5.46 18.92t-5.79 17.38H27.72q-2.21-5.07-4.63-11.58t-4.85-13.9Q15.8 46 13.38 37.81T8.63 21.15h14.12q1 4.63 2.32 10t2.76 10.92q1.43 5.57 3 10.87t3.09 9.71q1.65-5.07 3.25-10.48t3-10.81q1.43-5.41 2.7-10.53t2.26-9.65h10.28q1 4.52 2.21 9.65t2.58 10.51q1.38 5.41 3 10.81t3.25 10.48q1.43-4.41 3-9.71t3-10.87q1.49-5.57 2.81-10.92t2.32-10h13.79Q89 29.65 86.62 37.81t-4.85 15.55q-2.43 7.39-4.85 13.9t-4.75 11.59H61.36q-2.87-8.16-5.9-17.37t-5.57-18.93z"/></svg>